<svg width="30" height="32" viewBox="0 0 30 32" fill="none" xmlns="http://www.w3.org/2000/svg">
<g filter="url(#filter0_d_223_93)">
<path d="M19.053 1.74535C18.0239 0.619818 16.5865 0 15 0C13.405 0 11.9629 0.616068 10.9386 1.73463C9.90312 2.86552 9.39862 4.40247 9.51707 6.06211C9.75188 9.33637 12.2115 11.9999 15 11.9999C17.7885 11.9999 20.2439 9.33691 20.4824 6.06318C20.6024 4.41855 20.0948 2.8848 19.053 1.74535ZM24.3074 23.9999H5.69256C5.44891 24.0031 5.20762 23.9512 4.98624 23.8481C4.76486 23.7449 4.56896 23.5931 4.41279 23.4036C4.06905 22.9874 3.9305 22.419 4.03309 21.8442C4.47942 19.336 5.87237 17.229 8.06173 15.7499C10.0068 14.4369 12.4706 13.7142 15 13.7142C17.5294 13.7142 19.9932 14.4374 21.9383 15.7499C24.1276 17.2285 25.5206 19.3354 25.9669 21.8436C26.0695 22.4184 25.9309 22.9868 25.5872 23.4031C25.4311 23.5927 25.2352 23.7446 25.0138 23.8478C24.7924 23.9511 24.5511 24.003 24.3074 23.9999Z" fill="white"/>
<path d="M24.3094 23.8499H24.3074L5.69256 23.8498L5.69059 23.8499C5.46954 23.8528 5.25057 23.8057 5.04958 23.7121C4.84859 23.6185 4.67056 23.4805 4.52855 23.3082L4.52845 23.3081C4.21522 22.9288 4.08519 22.4059 4.18076 21.8705L4.18077 21.8704C4.6197 19.4038 5.98853 17.3316 8.14566 15.8742C10.0639 14.5793 12.4981 13.8642 15 13.8642C17.5019 13.8642 19.936 14.5798 21.8543 15.8742C24.0114 17.331 25.3803 19.4033 25.8192 21.8699L25.8192 21.87C25.9148 22.4054 25.7848 22.9283 25.4715 23.3076L25.4714 23.3077C25.3294 23.4801 25.1514 23.6182 24.9504 23.7119C24.7494 23.8056 24.5305 23.8527 24.3094 23.8499ZM15 0.15C16.5462 0.15 17.9428 0.753441 18.9423 1.84657C19.9542 2.95333 20.4501 4.44563 20.3328 6.05226C20.0984 9.26924 17.6899 11.8499 15 11.8499C12.31 11.8499 9.89742 9.26861 9.66669 6.05143C9.55089 4.42896 10.0441 2.93364 11.0492 1.83593C12.0435 0.750147 13.4447 0.15 15 0.15Z" stroke="black" stroke-width="0.3"/>
</g>
<defs>
<filter id="filter0_d_223_93" x="0" y="0" width="30" height="32" filterUnits="userSpaceOnUse" color-interpolation-filters="sRGB">
<feFlood flood-opacity="0" result="BackgroundImageFix"/>
<feColorMatrix in="SourceAlpha" type="matrix" values="0 0 0 0 0 0 0 0 0 0 0 0 0 0 0 0 0 0 127 0" result="hardAlpha"/>
<feOffset dy="4"/>
<feGaussianBlur stdDeviation="2"/>
<feComposite in2="hardAlpha" operator="out"/>
<feColorMatrix type="matrix" values="0 0 0 0 0 0 0 0 0 0 0 0 0 0 0 0 0 0 0.25 0"/>
<feBlend mode="normal" in2="BackgroundImageFix" result="effect1_dropShadow_223_93"/>
<feBlend mode="normal" in="SourceGraphic" in2="effect1_dropShadow_223_93" result="shape"/>
</filter>
</defs>
</svg>
